<?xml version="1.0" encoding="utf-8"?>
<!-- Generator: Adobe Illustrator 22.0.1, SVG Export Plug-In . SVG Version: 6.00 Build 0)  -->
<svg version="1.1" id="Calque_1" xmlns="http://www.w3.org/2000/svg" xmlns:xlink="http://www.w3.org/1999/xlink" x="0px" y="0px"
	 viewBox="0 0 256 256" style="enable-background:new 0 0 256 256;" xml:space="preserve">
<style type="text/css">
	.st0{fill-rule:evenodd;clip-rule:evenodd;fill:#FFFFFF;}
</style>
<path class="st0" d="M128.7,8C60.1,8,4.5,63.6,4.5,132.2C4.5,187,40.1,233.6,89.4,250c6.2,1.1,8.5-2.7,8.5-6
	c0-2.9-0.1-10.8-0.2-21.1c-34.5,7.5-41.8-16.6-41.8-16.6c-5.6-14.3-13.8-18.2-13.8-18.2c-11.3-7.7,0.9-7.5,0.9-7.5
	c12.5,0.9,19,12.8,19,12.8c11.1,19,29.1,13.5,36.1,10.3c1.1-8,4.3-13.5,7.9-16.6c-27.6-3.1-56.6-13.8-56.6-61.4
	c0-13.6,4.8-24.6,12.8-33.3c-1.3-3.1-5.5-15.8,1.2-32.9c0,0,10.4-3.3,34.1,12.7c9.9-2.8,20.5-4.1,31.1-4.2c10.5,0,21.2,1.4,31.1,4.2
	c23.7-16.1,34.1-12.7,34.1-12.7c6.8,17.1,2.5,29.7,1.2,32.9c8,8.7,12.8,19.8,12.8,33.3c0,47.7-29,58.2-56.7,61.3
	c4.5,3.8,8.4,11.4,8.4,23c0,16.6-0.2,30-0.2,34.1c0,3.3,2.2,7.2,8.5,6c49.3-16.5,84.8-63,84.8-117.8C252.8,63.6,197.2,8,128.7,8z"/>
</svg>
