<?xml version="1.0" encoding="utf-8"?>
<!-- Generator: Adobe Illustrator 22.0.1, SVG Export Plug-In . SVG Version: 6.00 Build 0)  -->
<svg version="1.1" id="Calque_1" xmlns="http://www.w3.org/2000/svg" xmlns:xlink="http://www.w3.org/1999/xlink" x="0px" y="0px"
	 viewBox="0 0 256 256" style="enable-background:new 0 0 256 256;" xml:space="preserve">
<style type="text/css">
	.st0{fill:#FFFFFF;}
</style>
<path class="st0" d="M82.8,223.2C173.4,223.2,223,148.1,223,83c0-2.1,0-4.2-0.1-6.3c9.6-6.9,18-15.7,24.6-25.6
	c-8.8,3.9-18.3,6.5-28.3,7.8c10.2-6.1,18-15.8,21.7-27.3c-9.5,5.7-20.1,9.7-31.3,11.9c-9-9.6-21.8-15.6-35.9-15.6
	c-27.2,0-49.3,22.1-49.3,49.3c0,3.8,0.5,7.6,1.2,11.2C84.6,86.5,48.3,66.8,24,37c-4.2,7.3-6.6,15.8-6.6,24.8
	c0,17.1,8.7,32.2,21.9,41c-8.1-0.3-15.7-2.5-22.3-6.1v0.7c0,23.8,17,43.8,39.5,48.3c-4.1,1.2-8.5,1.7-13,1.7c-3.2,0-6.2-0.3-9.2-0.9
	c6.2,19.6,24.5,33.8,46,34.2c-16.9,13.3-38.1,21.1-61.2,21.1c-3.9,0-7.9-0.2-11.7-0.7C29.1,215.1,55,223.2,82.8,223.2"/>
</svg>
