<svg id="Calque_1" data-name="Calque 1" xmlns="http://www.w3.org/2000/svg" viewBox="0 0 50 50"><defs><style>.cls-1{fill:#eee;}</style></defs><title>shapes</title><path class="cls-1" d="M14.91,45.12A3.5,3.5,0,0,1,11.46,41L13.2,30.89,5.84,23.72a3.5,3.5,0,0,1,1.94-6L18,16.27,22.5,7.05A3.49,3.49,0,0,1,25.64,5.1h0a3.49,3.49,0,0,1,3.14,2l4.55,9.22L43.5,17.75a3.5,3.5,0,0,1,1.94,6l-7.36,7.17L39.82,41a3.5,3.5,0,0,1-5.08,3.69l-9.1-4.79-9.1,4.79A3.48,3.48,0,0,1,14.91,45.12Zm.89-21.46,3.6,3.51a3.49,3.49,0,0,1,1,3.09l-.85,5L24,32.88a3.54,3.54,0,0,1,3.26,0l4.45,2.34-.85-5a3.46,3.46,0,0,1,1-3.09l3.6-3.51-5-.73A3.48,3.48,0,0,1,27.87,21l-2.23-4.51L23.41,21a3.48,3.48,0,0,1-2.63,1.91Z"/></svg>