<svg id="Calque_1" data-name="Calque 1" xmlns="http://www.w3.org/2000/svg" viewBox="0 0 80 30"><defs><style>.cls-1{fill:#eee;}</style></defs><title>shapes</title><path class="cls-1" d="M72.07,15.37l-10-5-.2-.08-.37-.14-.31-.07L60.84,10h-.68l-.34.06-.32.07-.36.14-.21.08L50.5,14.59l-8.43-4.22-.2-.08-.37-.14-.32-.07L40.84,10h-.68l-.34.06-.32.07-.36.14-.21.08L30.5,14.59l-8.43-4.22-.2-.08-.37-.14-.32-.07L20.84,10h-.68l-.34.06-.32.07-.36.14-.21.08-10,5A3.5,3.5,0,0,0,10.5,22a3.54,3.54,0,0,0,1.57-.37l8.43-4.22,8.43,4.22.06,0a3.81,3.81,0,0,0,.67.24l.13,0a3.27,3.27,0,0,0,.7.08h0a3.27,3.27,0,0,0,.7-.08l.13,0a3.81,3.81,0,0,0,.67-.24l.06,0,8.43-4.22,8.43,4.22.06,0a3.81,3.81,0,0,0,.67.24l.13,0a3.27,3.27,0,0,0,.7.08h0a3.27,3.27,0,0,0,.7-.08l.13,0a3.81,3.81,0,0,0,.67-.24l.06,0,8.43-4.22,8.43,4.22A3.54,3.54,0,0,0,70.5,22a3.5,3.5,0,0,0,1.57-6.63Z"/></svg>