<svg id="Calque_1" data-name="Calque 1" xmlns="http://www.w3.org/2000/svg" viewBox="0 0 70 70"><defs><style>.cls-1{fill:#eee;}</style></defs><title>shapes</title><path class="cls-1" d="M34.75,60.65h-.67a25.65,25.65,0,0,1-18.59-8.42,22.09,22.09,0,0,1,1.56-31.16A18.36,18.36,0,0,1,43,22.37a15.37,15.37,0,0,1-1.08,21.72,13,13,0,0,1-18.37-.92,11.1,11.1,0,0,1,.78-15.68A3.5,3.5,0,1,1,29,32.68a4.11,4.11,0,0,0-.29,5.79,6,6,0,0,0,8.48.43,8.38,8.38,0,0,0,.59-11.84,11.37,11.37,0,0,0-16-.8,15.08,15.08,0,0,0-1.06,21.27,18.72,18.72,0,0,0,13.58,6.12A19.51,19.51,0,0,0,48.52,48c9.21-9.2,9.16-25-.11-35.17a3.5,3.5,0,0,1,5.18-4.7c11.74,12.91,11.69,33-.11,44.83A26.58,26.58,0,0,1,34.75,60.65Z"/></svg>