<svg id="Calque_1" data-name="Calque 1" xmlns="http://www.w3.org/2000/svg" viewBox="0 0 50 50"><defs><style>.cls-1{fill:#eee;}</style></defs><title>shapes</title><path class="cls-1" d="M28.25,47.65h-.67A25.65,25.65,0,0,1,9,39.23,22.09,22.09,0,0,1,10.55,8.07a18.36,18.36,0,0,1,25.91,1.3,15.37,15.37,0,0,1-1.08,21.72A13,13,0,0,1,17,30.17a11.11,11.11,0,0,1,.78-15.68,3.5,3.5,0,1,1,4.7,5.19,4.11,4.11,0,0,0-.29,5.79,6,6,0,0,0,8.48.43,8.38,8.38,0,0,0,.59-11.84,11.36,11.36,0,0,0-16-.8,15.08,15.08,0,0,0-1.06,21.27,18.72,18.72,0,0,0,13.58,6.12A19.55,19.55,0,0,0,42,35a3.51,3.51,0,0,1,5,5A26.58,26.58,0,0,1,28.25,47.65Z"/></svg>